


The Bourne Supremacy 2004 BluRay 1080p DTS x264 

     Encoded by Tequila-Bob a.k.a. bobnjeff 

Source NTSC BluRay Disc

 
http://photobucket.com/The_Bourne_Supremacy_tequila_bob
 
http://www.imdb.com/title/tt0372183/

Release Date:23 July 2004 (USA) 



Rated PG-13 for violence and intense action, and for brief language

Storyline
After escaping from the emotional and physical pain he previously encountered. Jason Bourne and his girlfriend Marie begin a new life as far away as possible. But when an assassination attempt on Bourne goes horribly wrong, Bourne must re-enter the life he wanted to leave behind, in order to find out the truth why they are still after him. 


Cast
Cast overview, first billed only: 
 Matt Damon  ...  Jason Bourne  
 Franka Potente  ...  Marie  
 Brian Cox  ...  Ward Abbott  
 Julia Stiles  ...  Nicky  
 Karl Urban  ...  Kirill  
 Gabriel Mann  ...  Danny Zorn  
 Joan Allen  ...  Pamela Landy  
 Marton Csokas  ...  Jarda  
 Tom Gallop  ...  Tom Cronin  
 John Bedford Lloyd  ...  Teddy  
 Ethan Sandler  ...  Kurt  
 Michelle Monaghan  ...  Kim  
 Karel Roden  ...  Gretkov  
 Tomas Arana  ...  Martin Marshall  
 Oksana Akinshina 

Format : Matroska 
File size : 7.97 GiB 
Duration : 1h 48mn 
Overall bit rate : 10.5 Mbps 
Encoded date : UTC 2010-10-30 12:24:32 
Writing application : mkvmerge v4.3.0 ('Escape from the Island') built on Sep 5 2010 10:30:51 
Writing library : libebml v1.0.0 + libmatroska v1.0.0 

Video 
I
Codec ID : V_MPEG4/ISO/AVC 
Duration : 1h 48mn 
Bit rate mode : Variable 
Bit rate : 8 985 Kbps 
Maximum bit rate : 40.0 Mbps 
Width : 1 920 pixels 
Height : 816 pixels 
Display aspect ratio : 2.35:1 
Frame rate : 23.976 fps 
Color space : YUV 
Bits/(Pixel*Frame) : 0.239 
Stream size : 6.67 GiB (84%) 
Writing library : x264 core 98 r1649 c54c47d 


Audio  
Format : DTS 
Format/Info : Digital Theater Systems 
Duration : 1h 48mn 
Bit rate mode : Constant 
Bit rate : 1 510 Kbps 
Channel(s) : 6 channels 
Channel positions : Front: L C R, Side: L R, LFE 
Sampling rate : 48.0 KHz 
Bit depth : 24 bits 
Video delay : 10ms 
Stream size : 1.14 GiB (14%) 
Title : 3/2+1 
Language : English 

Text #1  
Language : English 

Text #2  
Language : Spanish 

Text #3  
Language : French 

Text #4  
Language : Spanish 

Text #5 

Language : French 

Menu Chapters 23




 
http://photobucket.com/The_Bourne_Supremacy_tequila_bob
